HIERARCHY
ROOT Hip
{
  OFFSET 0.0 0.0 0.0
  CHANNELS 6 Xposition Yposition Zposition Xrotation Yrotation Zrotation
  JOINT LowerSpine
  {
    OFFSET 0.0 0.061367 -0.03653
    CHANNELS 3 Xrotation Yrotation Zrotation
    JOINT MiddleSpine
    {
      OFFSET 0.0 0.056002 0.002633
      CHANNELS 3 Xrotation Yrotation Zrotation
      JOINT Chest
      {
        OFFSET 0.0 0.069296 -0.013882
        CHANNELS 3 Xrotation Yrotation Zrotation
        JOINT Neck
        {
          OFFSET 0.0 0.156156 -0.002923
          CHANNELS 3 Xrotation Yrotation Zrotation
          JOINT Head
          {
            OFFSET 0.0 0.088183 0.023986
            CHANNELS 3 Xrotation Yrotation Zrotation
            End Site
            {
              OFFSET 1e-06 0.123215 0.003678
            }
          }
        }
        JOINT LClavicle
        {
          OFFSET 0.014189 0.150698 0.046467
          CHANNELS 3 Xrotation Yrotation Zrotation
          JOINT LShoulder
          {
            OFFSET 0.082893 0.021616 -0.034976
            CHANNELS 3 Xrotation Yrotation Zrotation
            JOINT LForearm
            {
              OFFSET 0.195645 -0.000695 -0.001695
              CHANNELS 3 Xrotation Yrotation Zrotation
              JOINT LHand
              {
                OFFSET 0.163209 0.000474 -0.000977
                CHANNELS 3 Xrotation Yrotation Zrotation
                End Site
                {
                  OFFSET 0.0 0.006864 0.0
                }
              }
            }
          }
        }
        JOINT RClavicle
        {
          OFFSET -0.014189 0.150698 0.046467
          CHANNELS 3 Xrotation Yrotation Zrotation
          JOINT RShoulder
          {
            OFFSET -0.082908 0.021619 -0.034982
            CHANNELS 3 Xrotation Yrotation Zrotation
            JOINT RForearm
            {
              OFFSET -0.195645 -0.000695 -0.001695
              CHANNELS 3 Xrotation Yrotation Zrotation
              JOINT RHand
              {
                OFFSET -0.163209 0.000474 -0.000977
                CHANNELS 3 Xrotation Yrotation Zrotation
                End Site
                {
                  OFFSET 0.0 0.006864 0.0
                }
              }
            }
          }
        }
      }
    }
  }
  JOINT RThigh
  {
    OFFSET -0.072558 0.02774 -0.005953
    CHANNELS 3 Xrotation Yrotation Zrotation
    JOINT RShin
    {
      OFFSET -0.005253 -0.285537 0.0
      CHANNELS 3 Xrotation Yrotation Zrotation
      JOINT RFoot
      {
        OFFSET 0.0 -0.28038 0.0
        CHANNELS 3 Xrotation Yrotation Zrotation
        JOINT RToe
        {
          OFFSET 0.0 -0.030816 0.064441
          CHANNELS 3 Xrotation Yrotation Zrotation
          End Site
          {
            OFFSET 0.0 0.0 0.043231
          }
        }
      }
    }
  }
  JOINT LThigh
  {
    OFFSET 0.072557 0.027741 -0.005953
    CHANNELS 3 Xrotation Yrotation Zrotation
    JOINT LShin
    {
      OFFSET 0.005253 -0.285539 0.0
      CHANNELS 3 Xrotation Yrotation Zrotation
      JOINT LFoot
      {
        OFFSET 0.0 -0.28038 0.0
        CHANNELS 3 Xrotation Yrotation Zrotation
        JOINT LToe
        {
          OFFSET 0.0 -0.030816 0.064441
          CHANNELS 3 Xrotation Yrotation Zrotation
          End Site
          {
            OFFSET 0.0 0.0 0.043231
          }
        }
      }
    }
  }
}
MOTION
Frames: 15
Frame Time: 0.03333333333333333
0.04073 0.578381 0.024771 3.809282 -1.545235 -3.413898 -2.454867 -0.202251 0.896592 0.031659 1.354992 0.808377 -1.293081 1.659152 2.813132 -2.398922 -0.117478 -0.286492 0.023712 -0.143347 0.012433 -1.063663 -0.716629 -21.589481 17.621378 -15.089025 -62.743011 2.145267 -14.432552 -2.993694 0.014633 0.057618 -0.027761 1.16729 -1.24422 6.966805 -34.517155 5.874793 27.773684 -41.850567 77.122765 -1.052409 -0.206993 -0.020095 -0.042325 -0.731865 0.188912 -2.410979 -0.444783 0.295802 -1.984145 -1.824298 0.964005 0.411076 -0.032191 0.092334 0.047665 4.11295 0.045151 -1.138312 -0.558624 1.493187 1.629544 -5.480956 3.70104 2.288344 0.030569 -0.038705 -0.021043 
0.038623 0.577148 0.025345 3.916859 -1.458557 -3.333544 -2.322918 -0.192491 0.812932 0.004737 1.318389 0.784826 -1.254474 1.628112 3.107327 -2.287271 -0.13508 -0.285757 0.020565 -0.11612 0.013542 -0.978643 -0.627653 -21.267765 17.263046 -14.58556 -62.728848 2.051045 -14.941288 -3.001018 0.0142 0.055763 -0.026392 1.147796 -1.279703 7.172967 -33.947136 4.964974 28.716578 -41.815292 75.482307 -1.172673 -0.173676 -0.026477 -0.037533 -0.864318 0.035741 -2.340633 -0.402456 0.191468 -1.807812 -1.860274 0.975575 0.430486 -0.020776 0.091461 0.041586 3.858131 -0.157853 -1.148359 -0.509089 1.390326 1.722016 -5.395004 3.613455 2.209889 0.027105 -0.029489 -0.01594 
0.036121 0.575855 0.026109 4.007255 -1.396807 -3.283436 -2.184613 -0.18898 0.72305 -0.030855 1.271216 0.760257 -1.207613 1.602985 3.394033 -2.169914 -0.144116 -0.277155 0.017455 -0.091208 0.015401 -0.895586 -0.557669 -20.922363 16.898712 -14.200878 -62.693447 1.952025 -15.360845 -3.018791 0.014284 0.053325 -0.025825 1.125326 -1.293571 7.384637 -33.263191 4.170551 29.707102 -41.714279 73.638947 -1.228894 -0.14064 -0.031209 -0.032295 -0.931289 -0.112677 -2.220718 -0.37038 0.101465 -1.624831 -1.908295 1.005153 0.447996 -0.010318 0.089982 0.035773 3.661749 -0.321473 -1.097388 -0.450084 1.296262 1.805575 -5.316474 3.528625 2.131582 0.022474 -0.019345 -0.010499 
0.03331 0.574447 0.027261 4.113854 -1.380647 -3.24855 -2.06545 -0.183619 0.635734 -0.070273 1.226594 0.725066 -1.160126 1.5549 3.620457 -2.061242 -0.151247 -0.269328 0.014534 -0.067602 0.017976 -0.811314 -0.483169 -20.578972 16.646021 -14.046313 -62.56797 1.902442 -15.696185 -3.050625 0.013422 0.049348 -0.023465 1.104392 -1.287072 7.602091 -32.362907 3.495503 30.680834 -41.446232 71.978203 -1.284494 -0.109062 -0.033397 -0.027086 -0.986552 -0.242262 -2.082734 -0.336412 0.040793 -1.453524 -1.965464 1.045441 0.470797 -0.000436 0.085702 0.029096 3.506619 -0.441485 -0.988227 -0.350908 1.242422 1.860502 -5.240974 3.441975 2.052495 0.016104 -0.008501 -0.004851 
0.030495 0.572652 0.028261 4.307118 -1.247637 -3.163005 -1.965502 -0.182806 0.555226 -0.106542 1.186166 0.682337 -1.258491 1.456935 3.763212 -1.948802 -0.15721 -0.270182 0.011509 -0.04595 0.018913 -0.72255 -0.377053 -20.264713 16.457237 -14.028465 -62.331001 1.882547 -15.899559 -3.073535 0.009532 0.041728 -0.015782 1.08879 -1.302036 7.729479 -31.546288 3.085681 31.511358 -40.958893 70.502724 -1.410313 -0.075587 -0.039152 -0.021965 -1.043995 -0.413005 -2.030401 -0.388709 -0.056945 -1.280939 -2.040363 1.064711 0.487668 0.010119 0.083502 0.02239 3.229473 -0.570846 -0.887417 -0.211183 1.200222 1.910255 -5.156478 3.364718 1.973002 0.009879 0.003619 0.00189 
0.027788 0.571318 0.029288 4.498523 -1.136092 -3.090184 -1.877606 -0.186911 0.485237 -0.14117 1.150103 0.643306 -1.359758 1.363408 3.854793 -1.844235 -0.157036 -0.276784 0.009194 -0.029258 0.019834 -0.641255 -0.279371 -19.977928 16.331549 -14.094751 -62.087383 1.912499 -16.006186 -3.070351 0.005992 0.034551 -0.008277 1.066681 -1.315886 7.845611 -30.496422 2.806465 32.352013 -40.372818 69.236954 -1.512386 -0.047787 -0.043263 -0.017328 -1.111572 -0.553875 -1.993281 -0.416687 -0.154704 -1.129351 -2.108365 1.076699 0.500168 0.019656 0.081452 0.016725 2.97326 -0.656527 -0.739117 -0.062779 1.191313 1.938038 -5.07486 3.285288 1.900689 0.004699 0.014253 0.007737 
0.025284 0.570408 0.030204 4.697616 -1.047557 -3.032897 -1.806714 -0.193861 0.425373 -0.170555 1.125317 0.602761 -1.439446 1.287648 3.900547 -1.75983 -0.153912 -0.28489 0.007101 -0.01526 0.020589 -0.5673 -0.194285 -19.726067 16.250158 -14.25479 -61.803043 1.992306 -16.047728 -3.067476 0.003142 0.028185 -0.001863 1.044596 -1.328535 7.948802 -29.44702 2.657061 33.129715 -39.739445 68.195297 -1.594218 -0.02361 -0.046442 -0.013112 -1.203976 -0.645588 -1.97879 -0.431174 -0.230689 -0.998016 -2.179365 1.086393 0.509393 0.028508 0.081096 0.012073 2.744296 -0.693499 -0.563507 0.072643 1.219714 1.944689 -5.010058 3.210668 1.836559 -0.000167 0.023769 0.013294 
0.023032 0.569842 0.030908 4.898176 -0.960672 -2.985243 -1.747515 -0.202846 0.376504 -0.194193 1.113515 0.565486 -1.500516 1.240925 3.922101 -1.685712 -0.149144 -0.290788 0.005191 -0.005845 0.020856 -0.501319 -0.129501 -19.507778 16.168613 -14.450995 -61.502022 2.080638 -16.054508 -3.057188 0.001112 0.022887 0.003413 1.018954 -1.347938 8.019232 -28.62661 2.628731 33.818558 -39.197529 67.345337 -1.657365 -0.005114 -0.047957 -0.009619 -1.313154 -0.70625 -1.976447 -0.436557 -0.289799 -0.891089 -2.253561 1.08513 0.510005 0.035511 0.081596 0.008959 2.549189 -0.678175 -0.391742 0.178945 1.253947 1.950154 -4.970602 3.15486 1.787532 -0.003978 0.031679 0.017941 
0.02118 0.569456 0.031399 5.078645 -0.842691 -2.950615 -1.710421 -0.212524 0.34166 -0.217225 1.11141 0.536296 -1.583289 1.225895 3.910549 -1.631316 -0.146699 -0.294309 0.003422 0.002283 0.02119 -0.444912 -0.079552 -19.342358 16.151979 -14.648827 -61.20359 2.157365 -16.062712 -3.051244 -0.000399 0.018269 0.008002 0.998783 -1.36333 8.057463 -28.001675 2.71405 34.31646 -38.763485 66.756821 -1.686379 0.008335 -0.047076 -0.006926 -1.418225 -0.746871 -2.007423 -0.416417 -0.330586 -0.819442 -2.313673 1.074477 0.510668 0.041184 0.081761 0.005771 2.397626 -0.65778 -0.24554 0.234609 1.30718 1.952739 -4.935401 3.114882 1.756566 -0.007113 0.038418 0.021632 
0.019687 0.569426 0.031674 5.231711 -0.740397 -2.938186 -1.686303 -0.221469 0.321208 -0.230484 1.116794 0.517787 -1.661168 1.265802 3.865782 -1.603794 -0.143743 -0.297551 0.002379 0.006935 0.021355 -0.412733 -0.060465 -19.231518 16.153946 -14.818937 -60.938725 2.210314 -16.019178 -3.031319 -0.000758 0.015871 0.010685 0.976068 -1.368804 8.078868 -27.531397 2.792704 34.678402 -38.432892 66.405594 -1.699749 0.015868 -0.045741 -0.005371 -1.511005 -0.765469 -2.049157 -0.40268 -0.359965 -0.778832 -2.348468 1.065357 0.508578 0.042839 0.082776 0.004295 2.290266 -0.605378 -0.117398 0.246247 1.382046 1.944975 -4.918386 3.088352 1.738701 -0.008904 0.042461 0.02377 
0.018671 0.569715 0.031813 5.356555 -0.647055 -2.938858 -1.675947 -0.228944 0.310721 -0.237253 1.126895 0.502154 -1.710563 1.304356 3.816298 -1.592143 -0.142635 -0.301503 0.001583 0.009884 0.021417 -0.390663 -0.048201 -19.182825 16.157087 -14.929197 -60.737034 2.251603 -15.960308 -3.028917 -0.000882 0.014492 0.012448 0.962958 -1.380118 8.090655 -27.245207 2.869826 34.891956 -38.239532 66.331871 -1.701216 0.021171 -0.045244 -0.004343 -1.59269 -0.771863 -2.111133 -0.390675 -0.385828 -0.758076 -2.371118 1.050864 0.504701 0.043834 0.084397 0.003561 2.205998 -0.54831 -0.030293 0.249332 1.45065 1.934267 -4.91469 3.073499 1.728586 -0.010203 0.04539 0.025371 
0.018143 0.570319 0.03178 5.448683 -0.568351 -2.951 -1.678378 -0.235246 0.309843 -0.238426 1.139601 0.49073 -1.732198 1.337146 3.766076 -1.595383 -0.143188 -0.305389 0.001078 0.011019 0.021332 -0.37875 -0.043245 -19.193695 16.160402 -14.978904 -60.614529 2.28036 -15.896772 -3.042592 -0.000738 0.01424 0.013168 0.959597 -1.397507 8.092248 -27.165529 2.94773 34.949024 -38.189884 66.491554 -1.696489 0.024043 -0.045647 -0.003893 -1.659584 -0.766163 -2.186018 -0.382715 -0.404824 -0.756995 -2.382066 1.032258 0.499149 0.044084 0.086558 0.0036 2.144831 -0.486457 0.013625 0.244487 1.512968 1.921875 -4.924031 3.070483 1.725827 -0.010958 0.047027 0.026336 
0.018104 0.571201 0.031572 5.494413 -0.522351 -2.975273 -1.693118 -0.23867 0.318906 -0.233549 1.153294 0.484347 -1.719766 1.35111 3.717811 -1.612202 -0.145034 -0.309367 0.000953 0.010121 0.021149 -0.379703 -0.046921 -19.26156 16.16762 -14.969451 -60.583096 2.293533 -15.837269 -3.068921 -0.000449 0.014941 0.012941 0.965717 -1.416857 8.083323 -27.291491 3.01322 34.843826 -38.292622 66.937042 -1.687063 0.024129 -0.046821 -0.004049 -1.708028 -0.746677 -2.265381 -0.38257 -0.413841 -0.775759 -2.378481 1.012145 0.493057 0.04376 0.088684 0.004373 2.116075 -0.421261 0.020001 0.236201 1.570413 1.906617 -4.946343 3.081694 1.731646 -0.011109 0.047452 0.026694 
0.018548 0.572325 0.031196 5.482284 -0.523712 -3.013145 -1.720589 -0.237545 0.338604 -0.222009 1.166919 0.483995 -1.668462 1.333616 3.668148 -1.642453 -0.147505 -0.31442 0.001319 0.006705 0.0209 -0.39666 -0.061511 -19.381746 16.190815 -14.907724 -60.644642 2.294935 -15.791348 -3.101164 -7e-05 0.016464 0.011808 0.980018 -1.433846 8.062808 -27.584511 3.055461 34.575558 -38.532738 67.747818 -1.67933 0.020812 -0.048693 -0.004909 -1.737314 -0.714378 -2.344256 -0.393416 -0.411748 -0.814981 -2.35603 0.993074 0.487935 0.042919 0.090226 0.005912 2.129766 -0.350485 -0.000335 0.227301 1.627391 1.883617 -4.980636 3.108425 1.746871 -0.010548 0.046602 0.026404 
0.019463 0.573621 0.030668 5.405809 -0.581064 -3.06634 -1.763297 -0.232522 0.371596 -0.20468 1.178814 0.490605 -1.586607 1.273246 3.595511 -1.68998 -0.149652 -0.320841 0.00236 0.000288 0.020612 -0.433744 -0.093865 -19.550051 16.245388 -14.800706 -60.794533 2.284967 -15.760988 -3.127983 0.000513 0.018829 0.009639 1.000717 -1.442608 8.029645 -27.937729 3.067944 34.147324 -38.880493 69.082733 -1.673261 0.013041 -0.051186 -0.006639 -1.75029 -0.68344 -2.427868 -0.413196 -0.402556 -0.876019 -2.306742 0.977221 0.485528 0.041553 0.090701 0.008207 2.188406 -0.263942 -0.032646 0.216104 1.69845 1.841901 -5.023523 3.148806 1.771607 -0.008991 0.044214 0.025358 
